HIERARCHY
ROOT Hips
{
  OFFSET 0 0 0
  CHANNELS 6 Xposition Yposition Zposition Zrotation Yrotation Xrotation
  JOINT LeftThigh
  {
    OFFSET 8.409438 0 -5.917753
    CHANNELS 3 Zrotation Yrotation Xrotation
    JOINT LeftLeg
    {
      OFFSET 0 0 -42.358652
      CHANNELS 3 Zrotation Yrotation Xrotation
      JOINT LeftFoot
      {
        OFFSET 0 0 -39.357303
        CHANNELS 3 Zrotation Yrotation Xrotation
      }
    }
  }
  JOINT RightThigh
  {
    OFFSET -8.409438 0 -5.917753
    CHANNELS 3 Zrotation Yrotation Xrotation
    JOINT RightLeg
    {
      OFFSET 0 0 -42.358652
      CHANNELS 3 Zrotation Yrotation Xrotation
      JOINT RightFoot
      {
        OFFSET 0 0 -39.357303
        CHANNELS 3 Zrotation Yrotation Xrotation
      }
    }
  }
  JOINT SpineLow
  {
    OFFSET 0 0 4.719101
    CHANNELS 3 Zrotation Yrotation Xrotation
    JOINT SpineMid
    {
      OFFSET 0 0 12.899191
      CHANNELS 3 Zrotation Yrotation Xrotation
      JOINT Chest
      {
        OFFSET 0 0 12.899191
        CHANNELS 3 Zrotation Yrotation Xrotation
        JOINT LeftShoulder
        {
          OFFSET 7.550562 1.41573 9.438202
          CHANNELS 3 Zrotation Yrotation Xrotation
          JOINT LeftArm
          {
            OFFSET 9.155056 0 4.247191
            CHANNELS 3 Zrotation Yrotation Xrotation
            JOINT LeftForearm
            {
              OFFSET 0 0 25.771955
              CHANNELS 3 Zrotation Yrotation Xrotation
              JOINT LeftHand
              {
                OFFSET 0 0 25.197169
                CHANNELS 3 Zrotation Yrotation Xrotation
              }
            }
          }
        }
        JOINT RightShoulder
        {
          OFFSET -7.550562 1.41573 9.438202
          CHANNELS 3 Zrotation Yrotation Xrotation
          JOINT RightArm
          {
            OFFSET -9.155056 0 4.247191
            CHANNELS 3 Zrotation Yrotation Xrotation
            JOINT RightForearm
            {
              OFFSET 0 0 -25.771955
              CHANNELS 3 Zrotation Yrotation Xrotation
              JOINT RightHand
              {
                OFFSET 0 0 -25.197169
                CHANNELS 3 Zrotation Yrotation Xrotation
              }
            }
          }
        }
        JOINT Neck
        {
          OFFSET 0 0 15.101124
          CHANNELS 3 Zrotation Yrotation Xrotation
          JOINT Head
          {
            OFFSET 0 0 11.325843
            CHANNELS 3 Zrotation Yrotation Xrotation
            End Site
            {
              OFFSET 0 0 14.157303
            }
          }
        }
      }
    }
  }
}
MOTION
Frames: 13
Frame Time: 0.0
0.0  101.685394  0.0  3.424424  26.832182  -99.074224  2.360454  -17.121339  2.281891  -11.287843  15.498744  20.477853  0.540702  2.734517  2.91301  -21.784986  18.465784  2.478633  -8.342543  4.141034  16.284725  -2.573417  2.442083  -1.334569  -1.764517  1.594399  2.441387  -4.663124  4.528601  6.562187  -4.663124  4.528601  6.562187  -15.42067  21.914625  7.441069  93.000075  58.748382  170.704787  -24.250088  -28.385472  78.634711  64.167201  -8.192052  -11.79524  20.431503  -15.844842  12.236573  90.428747  41.064832  47.747663  9.000228  25.702006  -35.491878  96.487831  2.830285  -14.797814  -1.097043  -3.766225  1.308544  -0.814416  -2.827043  0.974289  
0.0  101.685394  0.0  3.535404  27.481392  -98.982612  1.821629  -16.889125  2.053471  -11.4178  15.544802  20.470852  0.62823  2.70007  2.965447  -21.892206  18.535194  2.588185  -8.761372  4.191839  16.240607  -2.651683  2.45466  -1.344264  -1.745679  1.627513  2.445699  -4.608213  4.617415  6.57329  -4.608213  4.617415  6.57329  -15.635955  21.513006  7.278471  92.416852  58.070988  171.076024  -24.721209  -27.949514  79.169743  64.225163  -8.285431  -12.442897  21.472954  -16.15934  12.292307  89.918137  41.79926  47.747448  10.008664  25.45039  -34.267776  96.581106  2.859421  -15.122313  -1.413857  -3.879846  1.233612  -1.052151  -2.912769  0.915873  
0.0  101.685394  0.0  3.576302  27.926997  -98.992517  1.591338  -16.865416  2.036492  -11.489051  15.555776  20.436499  0.553886  2.684579  2.972589  -21.887207  18.514478  2.743328  -9.027028  4.263663  16.22966  -2.747747  2.468925  -1.357369  -1.716932  1.649557  2.450213  -4.527216  4.675052  6.586384  -4.527216  4.675052  6.586384  -15.703061  21.218044  7.223928  91.895432  57.437584  171.453519  -25.117399  -27.596311  79.669395  64.186511  -8.471733  -12.824124  21.68225  -16.273608  12.299278  90.097474  42.273032  47.643626  11.098665  25.252748  -33.107941  96.667342  2.940866  -15.409212  -1.541001  -3.96458  1.22041  -1.147366  -2.976547  0.904938  
0.0  101.685394  0.0  3.635692  28.504771  -98.917178  0.932373  -16.697838  1.784805  -11.316696  15.549606  20.575099  0.538525  2.665049  3.018264  -21.847775  18.497769  2.913619  -9.480831  4.318108  16.179458  -2.875835  2.4726  -1.372045  -1.71364  1.680394  2.448879  -4.515424  4.758794  6.581144  -4.515424  4.758794  6.581144  -15.933561  20.799337  7.135693  91.514941  56.902722  171.643895  -25.632418  -27.131135  80.288063  63.980366  -8.750277  -13.042058  22.039151  -16.496297  12.345882  90.064159  42.916445  47.524021  12.190859  25.070126  -31.991738  96.712028  3.069105  -15.665285  -1.771044  -4.065106  1.16324  -1.319982  -3.052242  0.860274  
0.0  101.685394  0.0  3.628991  28.851422  -98.946819  0.639322  -16.72749  1.773898  -11.272086  15.554996  20.581445  0.46481  2.656274  3.035796  -21.901416  18.447772  3.020441  -9.619124  4.3677  16.19562  -2.962603  2.493869  -1.377925  -1.702447  1.689486  2.442955  -4.484402  4.782116  6.565225  -4.484402  4.782116  6.565225  -15.964815  20.633489  7.112974  91.279609  56.445899  171.958477  -25.845404  -26.68611  80.758899  63.707736  -9.046043  -13.199691  22.161291  -16.594315  12.497092  90.220868  43.51929  47.394718  13.232579  24.908749  -31.060412  96.694149  3.224787  -15.937775  -1.789126  -4.113008  1.186493  -1.333276  -3.088273  0.877437  
0.0  101.685394  0.0  3.634919  29.27916  -98.914041  0.17561  -16.70648  1.616775  -11.31978  15.574762  20.55162  0.548829  2.70512  3.13273  -21.930998  18.426679  3.149723  -9.77501  4.376874  16.194656  -3.170305  2.481162  -1.397118  -1.705594  1.697028  2.440788  -4.492468  4.802863  6.558619  -4.492468  4.802863  6.558619  -16.152538  20.401869  7.029797  91.099271  56.115027  172.195578  -26.035865  -26.139894  81.177122  63.516353  -9.330189  -13.315146  22.515009  -16.757085  12.654936  90.139478  44.245052  47.32862  14.05582  24.72244  -30.301379  96.611596  3.406675  -16.235687  -1.973217  -4.145999  1.140449  -1.471524  -3.11323  0.841567  
0.0  101.685394  0.0  3.60797  29.535237  -98.949874  -0.12928  -16.750492  1.592373  -11.289897  15.609757  20.568979  0.573418  2.700179  3.160013  -22.098693  18.403682  3.186672  -9.785591  4.39287  16.228453  -3.203579  2.501612  -1.394557  -1.70464  1.696167  2.442867  -4.489783  4.800556  6.564428  -4.489784  4.800557  6.564428  -16.205788  20.320319  6.947285  90.759239  55.836309  172.136733  -26.110255  -25.607343  81.565699  63.375715  -9.567561  -13.431735  22.621077  -16.812775  12.735203  90.34301  44.761503  47.279697  14.643318  24.514362  -29.765249  96.501666  3.608144  -16.52463  -1.946723  -4.189103  1.148112  -1.451515  -3.145533  0.847345  
0.0  101.685394  0.0  3.603945  29.87531  -98.909703  -0.441402  -16.838407  1.502816  -11.289948  15.689204  20.571915  0.619946  2.71322  3.208556  -22.310813  18.416535  3.18706  -9.737451  4.387296  16.284162  -3.354202  2.486393  -1.414254  -1.718711  1.697535  2.438478  -4.528465  4.805377  6.55129  -4.528465  4.805378  6.55129  -16.386969  20.175975  6.833995  90.290107  55.574517  171.937682  -26.21705  -25.159422  81.796913  63.352952  -9.821555  -13.624236  23.01505  -16.945287  12.898284  90.197691  45.427825  47.236233  14.9692  24.27999  -29.424302  96.372841  3.811281  -16.784053  -2.07193  -4.224049  1.13038  -1.545424  -3.171923  0.833069  
0.0  101.685394  0.0  3.55485  30.030408  -98.898632  -0.649741  -16.917926  1.417061  -11.233959  15.731853  20.612265  0.637475  2.712191  3.226162  -22.542679  18.384543  3.119055  -9.687594  4.374558  16.331265  -3.323136  2.504983  -1.401812  -1.731957  1.689063  2.452587  -4.56443  4.784498  6.58942  -4.564429  4.784498  6.58942  -16.470839  20.095485  6.581347  89.682826  55.273727  171.521953  -26.266906  -24.766344  81.963449  63.463319  -10.070373  -13.953585  23.17945  -16.910246  12.826515  90.332236  45.839521  47.144595  15.085547  24.050293  -29.249308  96.226339  4.048412  -17.027448  -1.979858  -4.264459  1.08962  -1.476597  -3.201923  0.80301  
0.0  101.685394  0.0  3.559056  30.309694  -98.787512  -0.782815  -17.017686  1.281306  -11.233309  15.791281  20.652773  0.614869  2.725056  3.224519  -22.874358  18.401006  2.990939  -9.586208  4.363943  16.38649  -3.430856  2.464439  -1.412564  -1.744247  1.684369  2.47686  -4.596682  4.774539  6.655213  -4.596682  4.774539  6.655213  -16.890495  19.865368  6.159036  88.514161  54.863626  170.84756  -26.623352  -24.56554  81.780768  63.577993  -10.302708  -14.450308  23.517736  -16.939519  12.693807  89.991374  46.372538  46.951092  15.078546  23.886114  -29.165471  96.047242  4.351004  -17.268814  -2.120294  -4.301396  0.956773  -1.582732  -3.229419  0.702304  
0.0  101.685394  0.0  3.482459  30.332037  -98.788016  -0.77278  -17.118981  1.212704  -11.185556  15.777476  20.71325  0.555689  2.736619  3.206408  -23.084524  18.357236  2.88831  -9.464575  4.335123  16.452184  -3.339213  2.461757  -1.398555  -1.744917  1.666242  2.495749  -4.598841  4.726417  6.707945  -4.598841  4.726417  6.707945  -16.927537  19.63059  5.846162  87.818973  54.408755  170.499165  -26.819192  -24.282291  81.789196  63.420364  -10.491059  -15.074489  23.547041  -16.879218  12.530635  89.866754  46.689335  46.6271  15.025076  23.784387  -29.190686  95.83047  4.740682  -17.546834  -2.026068  -4.306289  0.932693  -1.512256  -3.232858  0.684898  
0.0  101.685394  0.0  3.438734  30.384306  -98.749962  -0.723629  -17.234961  1.141887  -11.242571  15.785286  20.707847  0.524742  2.768275  3.196126  -23.202997  18.355201  2.801707  -9.39341  4.282754  16.519761  -3.336284  2.432903  -1.395399  -1.774791  1.659501  2.505773  -4.680443  4.711703  6.733596  -4.680443  4.711704  6.733597  -17.165215  19.408092  5.496598  87.407004  53.951185  170.10046  -27.299476  -23.726342  81.833385  63.115155  -10.89611  -12.668404  23.837795  -16.894259  12.440769  89.470649  47.102752  46.223755  14.872719  23.736307  -29.336316  95.561326  5.250206  -17.904839  -2.026623  -4.30588  0.893444  -1.512949  -3.23242  0.655474  
0.0  101.685394  0.0  3.316744  30.211258  -98.796252  -0.561073  -17.397605  1.141342  -11.17095  15.748388  20.784926  0.429823  2.805165  3.134609  -23.171894  18.250354  2.730151  -9.265868  4.213347  16.604638  -3.272559  2.441255  -1.369076  -1.793481  1.628151  2.508399  -4.734359  4.628217  6.741375  -4.734359  4.628217  6.741375  -17.364149  19.492552  5.108206  87.004402  53.394058  169.516976  -27.983247  -22.868636  81.968445  63.028536  -10.931762  -13.267301  23.909637  -16.806565  12.393996  89.336957  47.355116  45.892489  14.553247  23.692231  -29.681559  95.267984  5.903395  -18.361028  -1.785818  -4.238876  0.960476  -1.332083  -3.182004  0.707629  
